<svg width="76" height="73" viewBox="0 0 76 73" fill="none" xmlns="http://www.w3.org/2000/svg">
<path d="M35.1466 4.78114C36.0447 2.01721 39.9549 2.01722 40.853 4.78115L47.2049 24.3303C47.6065 25.5664 48.7584 26.4033 50.058 26.4033H70.6132C73.5194 26.4033 74.7277 30.1221 72.3766 31.8303L55.7471 43.9123C54.6956 44.6763 54.2557 46.0304 54.6573 47.2664L61.0092 66.8156C61.9072 69.5795 58.7438 71.8779 56.3927 70.1697L39.7632 58.0877C38.7117 57.3237 37.2879 57.3237 36.2364 58.0877L19.6069 70.1697C17.2558 71.8779 14.0924 69.5795 14.9904 66.8156L17.0766 60.3951L21.3423 47.2664C21.744 46.0304 21.304 44.6763 20.2525 43.9123L3.62301 31.8303C1.27187 30.1221 2.4802 26.4033 5.38637 26.4033H25.9416C27.2412 26.4033 28.3931 25.5664 28.7947 24.3303L35.1466 4.78114Z" fill="#C4C4C4" stroke="#C4C4C4" stroke-width="4"/>
</svg>
